# xmcd
#
# Track frame offsets:
#	150
#	8925
#	23162
#	46945
#	58794
#	72785
#	85318
#	99885
#	111545
#	122386
#	137237
#	151168
#	163112
#	178915
#	190962
#	207191
#	217895
#	229115
#	241966
#	258648
#	264964
#	279062
#	287715
#	299088
#	323344
#
# Disc length: 4493 seconds
#
# Revision: 1
# Processed by: cddbd v1.5.2PL0 Copyright (c) Steve Scherf et al.
# Submitted via: audiograbber 1.83.01
#
DISCID=66118b19
DTITLE=Axton, Hoyt - Joy To The World - The Definitive Collection - CD2
DYEAR=2016
DGENRE=Country
TTITLE0=I Love To Sing
TTITLE1=Boney Fingers
TTITLE2=Better Lovin' Man
TTITLE3=I Dream Of Highways
TTITLE4=Lay, Lady, Lay
TTITLE5=Ease Your Pain
TTITLE6=Idol Of The Band
TTITLE7=No No Song
TTITLE8=The Way Of The World
TTITLE9=You Taught Me How To Cry
TTITLE10=Lightnin' Bar Blues
TTITLE11=Left My Gal In The Mountains
TTITLE12=In A Young Girls Mind
TTITLE13=Little White Moon
TTITLE14=Life Machine
TTITLE15=Oklahoma Song
TTITLE16=Darrell and Judy
TTITLE17=Free Sailing
TTITLE18=Nashville
TTITLE19=Penny Whistle Song
TTITLE20=Water For My Horses
TTITLE21=The Devil
TTITLE22=Paid In Advance
TTITLE23=The Pusher
TTITLE24=Less Than The Song
EXTD=
EXTT0=
EXTT1=
EXTT2=
EXTT3=
EXTT4=
EXTT5=
EXTT6=
EXTT7=
EXTT8=
EXTT9=
EXTT10=
EXTT11=
EXTT12=
EXTT13=
EXTT14=
EXTT15=
EXTT16=
EXTT17=
EXTT18=
EXTT19=
EXTT20=
EXTT21=
EXTT22=
EXTT23=
EXTT24=
PLAYORDER=
